<svg xmlns="http://www.w3.org/2000/svg" xmlns:xlink="http://www.w3.org/1999/xlink" xml:space="preserve" version="1.1" style="shape-rendering:geometricPrecision;text-rendering:geometricPrecision;image-rendering:optimizeQuality;" viewBox="0 0 378.28 472.84999999999997" x="0px" y="0px" fill-rule="evenodd" clip-rule="evenodd">
<defs>
  <style type="text/css">
      .fil0 {fill:#fff}
      .fil1 {fill:#fff;fill-rule:nonzero}
  </style>
</defs>
<g><path class="fil0" d="M97.88 174.94c23.35,44.17 61.29,82.11 105.46,105.46 5.59,-4.29 10.91,-8.85 16.47,-13.21 4.26,-3.35 8.94,-6.74 14.43,-7.62 1.94,-0.32 3.91,-0.32 5.85,-0.03 17.08,2.55 34.71,6.49 50.82,12.76 15.11,5.84 33.74,15.69 39.75,31.83 1.74,4.69 2.29,9.66 1.71,14.6 -2.46,20.66 -9.85,42.3 -29.06,52.99 -12.89,7.16 -28.03,7.65 -42.24,5.26 -17.47,-2.91 -34.97,-10.24 -50.59,-18.44 -19.15,-10.01 -37.4,-22.34 -54.51,-35.55 -18.82,-14.5 -36.68,-30.38 -53.5,-47.17 -16.79,-16.8 -32.68,-34.68 -47.18,-53.51 -13.2,-17.11 -25.54,-35.36 -35.55,-54.5 -8.2,-15.63 -15.53,-33.13 -18.44,-50.6 -2.39,-14.21 -1.9,-29.35 5.27,-42.24 10.68,-19.21 32.32,-26.6 52.98,-29.02 4.94,-0.62 9.92,-0.07 14.6,1.67 28.93,10.76 40.55,63.45 44.59,90.58 0.29,1.97 0.29,3.9 -0.03,5.84 -0.87,5.49 -4.26,10.17 -7.62,14.43 -4.36,5.56 -8.88,10.89 -13.21,16.47z"/><path class="fil1" d="M201.79 26.33c-7.25,-0.01 -13.13,-5.95 -13.11,-13.2 0.01,-7.24 5.95,-13.12 13.2,-13.11 48.7,0.01 92.85,19.76 124.75,51.66 31.89,31.89 51.63,76.03 51.65,124.74 0.01,7.25 -5.87,13.18 -13.12,13.2 -7.24,0.01 -13.18,-5.87 -13.2,-13.11 -0.01,-41.42 -16.83,-78.99 -44,-106.16 -27.18,-27.18 -64.76,-44 -106.17,-44.02z"/><path class="fil1" d="M201.88 78.99c-7.31,0.02 -13.25,-5.92 -13.25,-13.18 0,-7.27 5.94,-13.2 13.2,-13.2 34.29,0.05 65.23,13.92 87.58,36.26 22.34,22.35 36.22,53.31 36.24,87.43 0.04,7.42 -5.9,13.36 -13.16,13.36 -7.26,0 -13.2,-5.94 -13.2,-13.2 0.01,-26.92 -10.92,-51.29 -28.55,-68.92 -17.61,-17.61 -41.99,-28.55 -68.86,-28.55z"/><path class="fil1" d="M201.88 131.54c-7.25,0.01 -13.19,-5.87 -13.2,-13.12 -0.02,-7.25 5.86,-13.18 13.11,-13.2 19.71,-0.01 37.58,7.97 50.45,20.85 12.87,12.86 20.85,30.72 20.84,50.44 -0.02,7.24 -5.96,13.12 -13.21,13.11 -7.24,-0.02 -13.12,-5.95 -13.11,-13.2 0.02,-12.31 -5.04,-23.54 -13.19,-31.68 -8.15,-8.16 -19.39,-13.22 -31.69,-13.2z"/></g>
</svg>
