<svg width="100px" height="100px" style="fill:#fff" xmlns="http://www.w3.org/2000/svg" xmlns:xlink="http://www.w3.org/1999/xlink" version="1.1" xml:space="preserve"><g><path d="M19.53,76.25h60.95c3.43,0,6.22-2.79,6.22-6.22V29.97c0-3.43-2.79-6.22-6.22-6.22H19.52c-1.66,0-3.22,0.65-4.4,1.82   s-1.82,2.74-1.82,4.4l0.01,40.06C13.31,73.46,16.1,76.25,19.53,76.25z M20.28,72.25L44.29,52.5l2.15,1.79   c1.08,0.9,2.39,1.34,3.71,1.34c1.33,0,2.65-0.45,3.73-1.36l1.78-1.49l23.49,19.47H20.28z M82.7,30.04v39.95L58.77,50.16L82.7,30.04   z M79.21,27.75L54.55,48.48c-0.15,0.1-0.29,0.21-0.41,0.34l-2.84,2.38c-0.67,0.56-1.64,0.56-2.31,0.01L20.83,27.75H79.21z    M41.17,49.89L17.31,69.51l-0.01-39.49L41.17,49.89z"/></g></svg>
